<?xml version="1.0" standalone="no"?>
<!DOCTYPE svg PUBLIC "-//W3C//DTD SVG 20010904//EN"
 "http://www.w3.org/TR/2001/REC-SVG-20010904/DTD/svg10.dtd">
<svg version="1.0" xmlns="http://www.w3.org/2000/svg"
 width="256.000000pt" height="256.000000pt" viewBox="0 0 256.000000 256.000000"
 preserveAspectRatio="xMidYMid meet">

<g transform="translate(0.000000,256.000000) scale(0.100000,-0.100000)"
fill="#000000" stroke="none">
<path d="M1199 2456 c-41 -30 -98 -102 -88 -110 2 -1 36 -13 74 -26 90 -29
171 -70 263 -132 l74 -50 46 20 c63 27 150 42 244 42 53 0 78 4 78 12 0 21
-61 106 -102 144 -22 20 -60 45 -85 56 -82 36 -234 69 -348 74 l-110 5 -46
-35z"/>
<path d="M474 2100 c-81 -16 -111 -36 -163 -106 -57 -78 -109 -177 -146 -283
-24 -66 -26 -78 -15 -120 20 -81 82 -201 103 -201 4 0 59 51 121 113 63 61
136 126 165 142 49 29 50 31 43 65 -11 55 -4 152 19 252 12 51 23 105 26 121
l5 27 -58 -1 c-33 -1 -77 -5 -100 -9z"/>
<path d="M2250 1653 c0 -98 -5 -194 -10 -213 -9 -31 -6 -43 30 -115 38 -76 69
-186 70 -248 0 -38 17 -31 53 19 61 87 57 367 -9 574 -25 81 -51 116 -106 146
l-28 15 0 -178z"/>
<path d="M1233 1585 c-115 -57 -215 -111 -222 -119 -19 -22 34 -419 68 -508
11 -31 12 -31 304 -79 l198 -32 24 24 c48 50 235 401 235 442 0 32 -130 183
-267 310 -54 50 -79 67 -101 67 -16 0 -119 -45 -239 -105z"/>
<path d="M315 834 c-9 -19 -19 -59 -22 -87 -4 -47 -1 -57 28 -101 48 -72 181
-204 276 -274 79 -58 86 -61 158 -67 69 -7 141 -3 152 8 2 3 -17 38 -44 78
-52 82 -113 212 -113 245 0 17 -8 23 -37 28 -46 7 -159 64 -273 137 -47 30
-90 58 -96 62 -7 4 -18 -7 -29 -29z"/>
<path d="M2035 560 c-70 -33 -175 -60 -237 -60 -40 0 -46 -4 -90 -59 -49 -61
-173 -152 -262 -192 -37 -16 -46 -24 -41 -37 4 -9 9 -22 12 -29 7 -17 -112
-27 -225 -19 -97 7 -252 36 -323 61 -32 11 -39 12 -39 1 0 -82 394 -138 710
-102 218 25 300 52 300 96 0 11 -9 29 -19 39 -20 20 -19 20 62 75 112 74 199
151 219 195 33 70 24 74 -67 31z"/>
</g>
</svg>
